<svg width="20" height="20" xmlns="http://www.w3.org/2000/svg" xmlns:xlink="http://www.w3.org/1999/xlink"><defs><path d="M11.953 0H8.047c-.324 0-.586.312-.586.698v18.6c0 .386.262.698.586.698h3.906c.324 0 .586-.312.586-.697V.698c0-.386-.262-.698-.586-.698zm-.586 18.601H8.633v-6.975h2.734V18.6zm0-8.37H8.633V1.395h2.734v8.836zM4.492 8.37c.324 0 .586.312.586.697v10.23c0 .386-.262.698-.586.698H.586c-.324 0-.586-.312-.586-.697V9.069c0-.386.262-.698.586-.698h3.906zM3.906 18.6v-2.325H1.172v2.325h2.734zm0-3.72V9.766H1.172v5.115h2.734zm15.508-6.51c.324 0 .586.312.586.697v10.23c0 .386-.262.698-.586.698h-3.906c-.324 0-.586-.312-.586-.697V9.069c0-.386.262-.698.586-.698h3.906zm-.586 10.23v-2.325h-2.734v2.325h2.734zm0-3.72V9.766h-2.734v5.115h2.734z" id="a"/></defs><use xlink:href="#a"/></svg>