<svg width="20" height="20" xmlns="http://www.w3.org/2000/svg" xmlns:xlink="http://www.w3.org/1999/xlink"><defs><path d="M1.1 11.3h6.8a.8.8 0 0 1 .8.8v6.8a.8.8 0 0 1-.8.8H1.1a.8.8 0 0 1-.8-.8v-6.8a.8.8 0 0 1 .8-.8zm0-11h6.8a.8.8 0 0 1 .8.8v6.8a.8.8 0 0 1-.8.8H1.1a.8.8 0 0 1-.8-.8V1.1a.8.8 0 0 1 .8-.8zm11 0h6.8a.8.8 0 0 1 .8.8v6.8a.8.8 0 0 1-.8.8h-6.8a.8.8 0 0 1-.8-.8V1.1a.8.8 0 0 1 .8-.8zm0 11h6.8a.8.8 0 0 1 .8.8v6.8a.8.8 0 0 1-.8.8h-6.8a.8.8 0 0 1-.8-.8v-6.8a.8.8 0 0 1 .8-.8zm.65 1.45v5.5h5.5v-5.5h-5.5zm0-11v5.5h5.5v-5.5h-5.5zm-11 0v5.5h5.5v-5.5h-5.5zm0 11v5.5h5.5v-5.5h-5.5z" id="a"/></defs><use xlink:href="#a"/></svg>