<svg width="20" height="20" xmlns="http://www.w3.org/2000/svg" xmlns:xlink="http://www.w3.org/1999/xlink"><defs><path d="M18.976 7.9l-1.404-.238a7.927 7.927 0 0 0-.564-1.362l.828-1.157a1.232 1.232 0 0 0-.134-1.592l-1.245-1.245a1.226 1.226 0 0 0-1.588-.133L13.708 3a7.844 7.844 0 0 0-1.412-.581l-.234-1.387A1.234 1.234 0 0 0 10.842 0h-1.76c-.605 0-1.119.435-1.22 1.032l-.241 1.42a7.731 7.731 0 0 0-1.358.573l-1.15-.827c-.208-.15-.459-.23-.718-.23-.33 0-.643.13-.873.363l-1.25 1.245a1.237 1.237 0 0 0-.133 1.592l.836 1.174c-.23.439-.414.894-.556 1.366l-1.387.234C.435 8.042 0 8.556 0 9.162v1.76c0 .605.435 1.119 1.032 1.22l1.42.241c.147.468.339.924.573 1.358l-.823 1.145a1.232 1.232 0 0 0 .133 1.592l1.246 1.245a1.226 1.226 0 0 0 1.587.134l1.174-.836c.422.221.865.401 1.32.543l.234 1.404c.1.597.614 1.032 1.22 1.032h1.763c.606 0 1.12-.435 1.22-1.032l.239-1.404A7.927 7.927 0 0 0 13.7 17l1.157.827c.209.15.46.23.718.23.33 0 .64-.13.874-.363l1.245-1.245a1.237 1.237 0 0 0 .133-1.592L17 13.695a7.87 7.87 0 0 0 .564-1.362l1.404-.234A1.234 1.234 0 0 0 20 10.88V9.12a1.22 1.22 0 0 0-1.024-1.22zm-.096 2.98c0 .054-.037.1-.092.108l-1.754.292a.56.56 0 0 0-.452.414 6.688 6.688 0 0 1-.727 1.75.565.565 0 0 0 .025.615l1.032 1.454a.114.114 0 0 1-.012.142L15.655 16.9a.106.106 0 0 1-.08.033.103.103 0 0 1-.062-.02l-1.45-1.033a.565.565 0 0 0-.614-.025 6.688 6.688 0 0 1-1.75.727.555.555 0 0 0-.414.452l-.297 1.754a.108.108 0 0 1-.109.092H9.12a.108.108 0 0 1-.108-.092l-.293-1.754a.56.56 0 0 0-.413-.452 6.945 6.945 0 0 1-1.713-.702.578.578 0 0 0-.284-.075.55.55 0 0 0-.326.105L4.52 16.95a.124.124 0 0 1-.063.02.112.112 0 0 1-.08-.033l-1.245-1.245a.113.113 0 0 1-.012-.142l1.028-1.441a.572.572 0 0 0 .025-.618 6.625 6.625 0 0 1-.736-1.747.572.572 0 0 0-.45-.413L1.22 11.03a.108.108 0 0 1-.092-.109V9.162c0-.054.038-.1.092-.108l1.742-.293a.565.565 0 0 0 .456-.418 6.681 6.681 0 0 1 .714-1.754.558.558 0 0 0-.03-.61l-1.04-1.463a.114.114 0 0 1 .013-.142L4.32 3.13a.106.106 0 0 1 .08-.033c.024 0 .045.008.062.02l1.441 1.029c.184.13.427.137.619.025a6.625 6.625 0 0 1 1.746-.736.572.572 0 0 0 .414-.45l.3-1.768a.108.108 0 0 1 .11-.092h1.758c.054 0 .1.037.109.092l.292 1.742c.038.221.2.401.418.455.63.16 1.233.406 1.792.736.193.113.43.104.615-.025l1.44-1.036a.124.124 0 0 1 .064-.021c.016 0 .05.004.079.033l1.245 1.245a.113.113 0 0 1 .013.142l-1.032 1.45a.565.565 0 0 0-.025.614c.325.547.568 1.136.726 1.75.055.218.234.38.452.414l1.754.297a.108.108 0 0 1 .092.108v1.76h-.004zm-8.878-5.198a4.319 4.319 0 0 0-4.316 4.316 4.319 4.319 0 0 0 4.316 4.316 4.319 4.319 0 0 0 4.316-4.316 4.319 4.319 0 0 0-4.316-4.316zm0 7.504a3.19 3.19 0 0 1-3.188-3.188 3.19 3.19 0 0 1 3.188-3.188 3.19 3.19 0 0 1 3.188 3.188 3.19 3.19 0 0 1-3.188 3.188z" id="a"/></defs><use xlink:href="#a"/></svg>